<?xml version="1.0" encoding="UTF-8"?>
<!DOCTYPE svg PUBLIC "-//W3C//DTD SVG 1.1//EN" "http://www.w3.org/Graphics/SVG/1.1/DTD/svg11.dtd">
<svg version="1.1" xmlns="http://www.w3.org/2000/svg" xmlns:xlink="http://www.w3.org/1999/xlink" x="0" y="0" width="832" height="470" viewBox="0, 0, 832, 470">
  <g id="Layer_1">
    <path d="M631.067,147.517 C629.405,145.043 627.649,142.624 625.768,140.283 C625.483,139.93 625.173,139.594 624.883,139.243 C616.604,129.302 606.152,120.705 593.829,115.398 C581.153,109.888 566.401,108.31 552.933,112.111 C546.24,114.03 539.912,117.309 534.73,121.847 C532.176,124.161 529.899,126.746 528.03,129.564 C526.241,132.452 524.856,135.531 524.083,138.718 C525.937,135.997 528.005,133.58 530.276,131.44 C532.651,129.39 535.086,127.518 537.771,126.046 C543.092,123.066 548.868,121.141 554.761,120.229 C566.582,118.434 578.664,120.407 589.649,125.157 C598.574,129.021 606.811,134.577 614.382,141.152 C616.155,142.687 617.898,144.263 619.597,145.907 C620.713,146.983 621.813,148.081 622.897,149.198 C630.548,157.079 637.446,165.92 644.373,175.058 C641.284,165.386 636.827,156.085 631.067,147.517 M829.768,85.237 C829.631,87.969 828.863,90.637 827.94,93.207 C826.983,95.771 825.857,98.284 824.522,100.677 C821.903,105.502 818.724,110.002 815.286,114.281 C811.866,118.581 808.038,122.528 804.161,126.418 C800.135,130.427 794.891,132.977 789.601,134.683 C778.891,138.024 767.762,138.654 756.822,139.154 C745.853,139.56 734.916,139.563 724.014,139.688 C702.212,139.892 680.48,140.613 658.993,143.169 C654.09,143.744 649.204,144.423 644.334,145.184 C655.47,165.706 663.614,193.434 667.231,229.483 C676.372,242.755 687.292,279.038 661.63,305.586 C661.63,305.586 677.306,269.811 631.584,252.849 C619.06,257.589 615.651,269.242 628.226,282.136 C611.401,276.617 603.427,262.846 603.626,250.592 C538.254,241.492 517.656,201.512 512.513,171.336 C512.027,171.383 511.537,171.41 511.04,171.41 C510.94,171.41 510.843,171.397 510.744,171.395 C509.677,171.373 508.639,171.238 507.638,171.002 C507.757,172.313 507.877,173.62 508.002,174.932 C509.489,191.676 510.853,208.237 513.284,224.547 C515.861,240.613 518.831,257.402 526.535,270.393 C527.02,271.137 527.525,271.854 528.051,272.541 C529.692,274.687 531.526,276.504 533.546,277.68 C536.319,279.413 541.477,281.646 544.654,284.102 C551.992,288.854 558.472,294.29 565.003,299.691 C577.913,310.617 590.167,322.104 602.388,333.607 L638.955,368.122 C651.309,379.402 663.55,390.924 677.557,400.163 C663.088,391.629 650.208,380.679 637.284,370.021 L599.012,337.368 C586.259,326.519 573.473,315.693 560.263,305.606 C553.632,300.657 546.954,295.631 539.994,291.619 C536.316,289.195 533.576,288.392 529.047,286.02 C524.328,283.556 520.913,279.814 518.165,276.026 C507.968,260.382 504.564,243.337 500.919,226.71 C498.768,215.925 497.104,205.117 495.565,194.357 C492.487,200.858 488.064,206.873 482.429,212.226 C477.891,216.538 470.183,219.577 460.45,221.561 C460.586,221.827 460.698,222.111 460.84,222.372 C462.631,225.693 464.765,228.816 467.424,231.18 C468.108,231.733 468.791,232.283 469.529,232.722 C470.305,233.2 470.905,233.461 471.98,233.988 C473.933,234.933 475.72,236.153 477.323,237.527 C480.513,240.308 483.038,243.624 485.153,247.084 C487.29,250.546 489.031,254.178 490.61,257.853 C493.729,265.218 496.143,272.79 498.356,280.383 C502.774,295.576 506.326,310.945 511.037,325.968 C513.407,333.467 516.049,340.901 519.553,347.941 C521.333,351.44 523.304,354.863 525.717,357.965 C528.097,361.085 530.962,363.876 534.341,365.923 C530.907,363.97 527.945,361.242 525.465,358.165 C522.948,355.106 520.869,351.714 518.982,348.237 C515.26,341.242 512.397,333.837 509.815,326.371 C504.675,311.415 500.695,296.113 495.895,281.136 C493.489,273.657 490.896,266.232 487.666,259.152 C484.416,252.157 480.516,245.216 474.841,240.485 C473.42,239.336 471.892,238.361 470.273,237.631 C469.575,237.303 468.347,236.801 467.436,236.255 C466.462,235.708 465.589,235.053 464.722,234.383 C461.388,231.578 458.944,228.126 456.889,224.584 C456.48,223.868 456.099,223.144 455.718,222.422 C452.021,223.011 448.095,223.476 443.973,223.813 C443.346,217.581 442.807,211.327 442.319,205.066 C442.23,203.943 442.163,202.817 442.079,201.694 C442.155,201.586 442.234,201.477 442.312,201.368 L440.838,177.492 C451.858,163.92 459.605,153.168 473.855,141.297 C475.742,139.833 477.647,138.389 479.96,137.01 C482.366,135.689 484.733,134.15 489.298,133.491 C491.379,133.137 494.978,133.484 497.881,135.366 C500.774,137.367 502.063,139.799 502.806,141.478 C503.127,142.265 503.39,142.996 503.615,143.69 C504.884,142.955 506.267,142.403 507.736,142.07 C508.8,141.827 509.902,141.687 511.04,141.687 C511.407,141.687 511.768,141.718 512.13,141.743 C518.634,109.319 555.116,91.172 589.95,99.431 C591.374,99.769 592.787,100.167 594.195,100.595 C595.306,99.081 596.44,97.623 597.603,96.222 C600.65,92.554 603.836,89.138 607.08,85.796 C613.581,79.145 620.326,72.846 627.214,66.727 C641.003,54.514 655.308,42.962 670.152,32.12 C677.583,26.711 685.155,21.49 692.979,16.627 C696.892,14.198 700.869,11.863 704.962,9.711 C709.053,7.558 713.256,5.564 717.722,4.082 C719.962,3.366 722.286,2.769 724.778,2.7 C727.178,2.719 729.451,2.872 731.768,3.18 C736.375,3.763 740.894,4.863 745.256,6.357 C753.954,9.399 762.128,13.893 769.149,19.751 C761.861,14.24 753.533,10.183 744.856,7.608 C740.507,6.348 736.051,5.491 731.565,5.141 C729.34,4.948 727.037,4.91 724.87,4.998 C722.791,5.153 720.656,5.787 718.59,6.566 C714.448,8.169 710.454,10.299 706.569,12.591 C702.677,14.885 698.883,17.367 695.15,19.945 C687.684,25.103 680.454,30.622 673.372,36.322 C659.226,47.747 645.622,59.871 632.641,72.549 C626.161,78.891 619.843,85.395 613.887,92.117 C610.921,95.481 608.032,98.906 605.405,102.4 C604.917,103.053 604.448,103.708 603.981,104.363 C617.229,110.624 629.41,121.314 639.573,137.129 C645.781,136.355 652.001,135.716 658.227,135.242 C680.213,133.526 702.217,133.698 724.063,134.377 C734.991,134.698 745.888,135.135 756.749,135.172 C767.57,135.125 778.516,134.916 788.836,132.14 C793.946,130.713 798.896,128.545 802.8,124.964 C806.778,121.282 810.723,117.533 814.271,113.425 C817.837,109.337 821.161,105.018 823.944,100.351 C825.364,98.033 826.577,95.594 827.63,93.088 C828.649,90.574 829.521,87.959 829.768,85.237 M355.414,135.646 C355.431,135.389 355.448,135.13 355.465,134.874 C346.206,121.213 336.565,107.681 326.401,94.739 C320.876,87.782 315.189,80.872 309.034,74.868 C307.498,73.389 305.921,71.972 304.347,70.787 C303.56,70.197 302.773,69.667 302.055,69.275 C301.775,69.114 301.502,68.994 301.264,68.902 C301.073,69.333 300.869,69.866 300.698,70.405 C300.103,72.25 299.629,74.361 299.211,76.483 C297.596,85.065 296.561,94.044 295.418,102.955 C294.299,111.889 293.178,120.853 291.861,129.807 C290.542,138.763 289.061,147.716 287.15,156.616 C286.285,160.633 285.324,164.644 284.245,168.631 C287.611,171.383 290.592,174.327 293.054,177.434 C297.435,181.616 301.417,186.231 304.975,191.259 C314.588,173.459 333.413,152.788 355.414,135.646 M343.649,215.182 C331.625,212.393 321.098,209.137 313.317,205.626 C319.527,218.965 323.031,234.726 322.975,253.23 C323.529,252.477 324.094,251.732 324.688,250.999 C325.36,250.191 326.049,249.387 326.776,248.616 L328.729,246.454 C329.951,244.972 331.132,243.45 332.185,241.819 C334.326,238.588 336.16,235.119 337.774,231.535 C340.133,226.272 342.031,220.777 343.649,215.182 M363.535,128.074 C363.773,128.408 364.014,128.74 364.251,129.073 C371.407,124.003 378.802,119.374 386.239,115.374 C383.612,107.365 380.805,99.431 377.718,91.695 C376.233,88.036 374.669,84.42 372.947,81.006 C372.085,79.306 371.177,77.647 370.222,76.17 C369.926,75.717 369.628,75.296 369.33,74.895 C369.027,75.988 368.765,77.234 368.534,78.454 C367.847,82.21 367.374,86.168 366.938,90.125 C365.639,102.66 364.675,115.367 363.535,128.074 M414.157,103.686 C419.681,102.094 425.093,101.021 430.315,100.542 C429.614,95.436 428.872,90.352 427.994,85.357 C427.655,83.46 427.285,81.581 426.874,79.76 C426.526,78.248 426.124,76.721 425.675,75.484 C425.411,75.824 425.142,76.192 424.875,76.598 C423.071,79.383 421.503,82.885 420.084,86.369 C418.664,89.888 417.374,93.52 416.16,97.189 C415.456,99.33 414.82,101.513 414.157,103.686 M424.98,73.994 C424.979,73.99 425.017,74.021 425.025,74.027 C424.997,74.007 424.959,73.943 424.98,73.994 M513.059,468.083 C509.128,465.971 505.848,462.774 503.113,459.239 C500.368,455.689 498.143,451.762 496.193,447.729 C492.313,439.638 489.5,431.101 486.999,422.529 C482.037,405.358 478.468,387.863 473.854,370.829 C471.535,362.338 468.983,353.901 465.501,346.126 C463.761,342.256 461.741,338.565 459.319,335.481 C458.083,333.876 456.932,332.857 455.04,330.867 C453.409,329.033 451.86,327.138 450.522,325.146 C445.062,317.204 441.558,308.524 438.622,299.832 C435.736,291.109 433.567,282.263 431.754,273.39 C428.501,257.175 426.339,240.842 424.65,224.537 C405.767,224.515 384.963,222.626 365.807,219.515 C365.043,226.316 364.245,233.128 363.333,239.94 C361.218,255.525 358.763,271.147 354.537,286.633 C352.354,294.356 349.821,302.095 345.67,309.509 C343.561,313.186 341.005,316.845 337.294,319.856 L335.843,320.928 C335.328,321.259 334.79,321.57 334.264,321.882 C333.204,322.458 331.821,323.031 331.312,323.25 C329.892,323.867 328.526,324.709 327.227,325.731 C322.02,329.931 318.163,336.577 315.009,343.371 C311.86,350.248 309.313,357.537 306.958,364.902 C302.251,379.652 298.353,394.797 293.261,409.609 C290.703,417.004 287.852,424.342 284.124,431.262 C282.229,434.699 280.142,438.047 277.611,441.057 C275.114,444.077 272.138,446.741 268.716,448.615 C275.386,444.424 279.63,437.562 282.939,430.659 C286.22,423.655 288.618,416.269 290.729,408.814 C291.246,406.975 291.703,405.117 292.19,403.267 C295.645,390.11 298.432,376.746 301.857,363.433 C303.82,355.838 305.986,348.245 308.906,340.771 C309.748,338.654 310.659,336.545 311.661,334.459 C312.425,332.871 313.235,331.296 314.14,329.748 C316.218,326.167 318.744,322.668 322.078,319.663 C323.753,318.174 325.643,316.832 327.738,315.766 C328.987,315.155 329.392,314.939 330.026,314.562 L330.911,313.953 L331.767,313.235 C332.965,312.151 334.052,310.814 335.05,309.336 C335.934,308.027 336.748,306.608 337.481,305.12 C340.61,298.737 342.616,291.432 344.232,284.08 C347.389,269.282 348.938,253.926 350.138,238.554 C351.315,223.157 351.97,207.676 352.77,192.052 C352.854,190.462 352.94,188.872 353.029,187.279 C352.165,197.117 351.309,206.908 350.325,216.659 C349.85,216.56 349.394,216.455 348.923,216.355 C347.081,222.22 344.928,228.01 342.248,233.615 C340.454,237.347 338.417,240.992 336.013,244.433 C334.828,246.163 333.496,247.809 332.109,249.405 L329.941,251.679 C329.26,252.354 328.608,253.061 327.966,253.78 C326.065,255.954 324.342,258.296 322.749,260.754 C322.15,267.088 318.326,274.984 311.416,283.569 C306.63,295.158 302.461,307.098 297.398,318.683 C294.151,326.098 290.559,333.418 286.006,340.146 C281.479,346.842 275.82,352.989 268.716,356.913 C275.676,352.736 281.041,346.455 285.285,339.675 C289.554,332.862 292.85,325.496 295.811,318.023 C299.468,308.779 302.555,299.318 305.873,289.892 C266.31,331.708 159.223,383.918 2.007,353.331 C7.434,315.102 30.459,259.25 63.915,241.53 C69.111,241.774 74.312,242.681 79.362,244.231 C77.425,245.281 75.593,246.448 73.822,247.653 C69.578,250.641 65.762,254.03 62.158,257.582 C54.974,264.71 48.661,272.555 43.108,280.881 C37.527,289.181 32.685,297.985 28.93,307.249 C27.042,311.872 25.513,316.65 24.419,321.519 C23.336,326.382 22.818,331.409 23.228,336.337 C23.321,331.388 24.436,326.57 25.886,321.911 C27.353,317.246 29.321,312.763 31.462,308.381 C35.803,299.638 41.125,291.408 46.962,283.621 C52.86,275.884 59.299,268.547 66.392,262.04 C69.947,258.803 73.686,255.793 77.609,253.237 C81.235,250.859 85.148,248.795 88.918,247.976 C98.103,252.325 106.538,258.497 113.948,265.732 C122.989,274.499 130.613,284.763 137.303,295.572 C131.379,284.328 124.46,273.479 115.863,263.893 C109.271,256.503 101.625,249.868 92.955,244.708 C97.323,236.933 102.449,229.646 108.435,223.246 C114.767,216.518 122.193,210.919 130.45,206.983 C138.681,203.007 147.676,200.609 156.903,199.731 C166.027,198.857 175.32,199.33 184.551,200.529 C188.793,203.418 192.845,206.62 196.665,210.09 C206.904,219.227 215.427,230.261 222.7,242.033 C216.194,229.826 208.346,218.161 198.504,208.177 C195.395,204.966 192.069,201.948 188.585,199.11 C196.011,193.013 203.992,187.625 212.517,183.367 C221.37,178.961 230.92,176.025 240.738,175.089 C250.555,174.174 260.592,175.527 270.047,178.858 C274.768,180.539 279.377,182.626 283.813,185.084 C288.203,187.613 292.486,190.386 296.592,193.442 C292.829,189.986 288.907,186.652 284.658,183.725 C280.39,180.838 275.89,178.232 271.112,176.157 C266.349,174.067 261.344,172.429 256.183,171.404 C251.021,170.398 245.725,169.983 240.437,170.159 C229.835,170.46 219.432,173.344 209.81,177.591 C200.649,181.608 192.275,187.09 184.435,193.123 C182.799,192.872 181.156,192.648 179.508,192.455 C174.61,189.244 169.45,186.408 164.028,184.072 C161.847,183.128 159.613,182.292 157.359,181.51 C191.893,138.643 248.254,143.794 279.199,164.859 C279.923,161.73 280.597,158.579 281.199,155.415 C282.854,146.661 284.098,137.801 285.187,128.911 C286.272,120.019 287.169,111.085 288.068,102.124 C288.999,93.15 289.796,84.198 291.286,75.036 C291.684,72.732 292.125,70.424 292.845,67.963 C293.243,66.708 293.602,65.477 294.513,63.907 C294.827,63.452 294.976,63.14 295.466,62.595 C295.904,62.095 296.478,61.612 297.122,61.24 C298.432,60.468 299.892,60.26 301.009,60.311 C303.277,60.448 304.682,61.149 305.981,61.775 C307.258,62.431 308.352,63.15 309.387,63.885 C311.442,65.363 313.252,66.926 314.999,68.524 C321.891,74.95 327.821,81.863 333.665,88.862 C341.618,98.517 349.177,108.38 356.543,118.413 C357.121,108.752 357.681,99.067 358.447,89.315 C358.796,85.237 359.175,81.162 359.832,76.956 C360.201,74.82 360.524,72.752 361.398,70.265 C361.599,69.661 361.916,68.947 362.293,68.224 C362.823,67.357 363.326,66.576 364.34,65.752 C365.282,64.937 366.972,64.187 368.566,64.225 C370.162,64.231 371.36,64.747 372.224,65.218 C373.936,66.212 374.854,67.229 375.729,68.189 C376.574,69.157 377.265,70.106 377.91,71.049 C379.185,72.934 380.249,74.806 381.252,76.684 C383.246,80.436 384.96,84.206 386.592,87.992 C389.788,95.55 392.685,103.145 395.394,110.793 C397.636,109.755 399.873,108.781 402.104,107.878 C403.563,103.204 405.104,98.572 406.774,93.933 C408.151,90.153 409.607,86.389 411.249,82.637 C412.929,78.883 414.65,75.167 417.234,71.388 C417.906,70.44 418.636,69.482 419.59,68.504 C420.579,67.555 421.663,66.439 423.916,65.675 C425.014,65.323 426.517,65.169 427.892,65.572 C429.228,65.938 430.347,66.675 431.037,67.349 C431.768,68.021 432.279,68.706 432.792,69.556 C433.167,70.251 433.486,70.93 433.69,71.501 C434.575,73.862 434.991,75.879 435.416,77.933 C435.819,79.969 436.151,81.974 436.45,83.968 C437.253,89.449 437.88,94.882 438.464,100.3 C448.549,100.669 457.682,103.652 465.174,110.007 C471.724,115.566 477.273,121.183 481.924,126.804 C480.986,127.452 480.1,128.108 479.239,128.765 C475.226,131.896 471.803,135.13 468.46,138.416 C465.138,141.705 461.97,145.05 458.876,148.431 C452.358,155.6 446.136,162.875 440.062,170.266 C439.706,164.349 439.339,158.417 438.915,152.439 C438.574,147.975 438.216,143.515 437.615,138.849 C437.301,136.499 436.962,134.146 436.32,131.441 C435.972,130.064 435.649,128.679 434.662,126.568 C434.527,126.295 434.431,126.076 434.258,125.766 C434.049,125.412 433.83,125.064 433.6,124.722 C433.141,124.035 432.641,123.398 431.847,122.643 C431.049,121.906 430.054,121.121 428.604,120.485 C427.189,119.851 425.428,119.506 423.834,119.576 C420.549,119.752 418.646,120.996 417.397,121.826 C416.131,122.73 415.335,123.541 414.657,124.274 C413.338,125.736 412.499,126.984 411.716,128.192 C410.201,130.586 409.077,132.792 408.019,134.987 C405.936,139.357 404.227,143.617 402.6,147.886 C399.073,157.352 395.968,166.768 393.084,176.227 C392.704,174.659 392.322,173.091 391.921,171.513 C390.925,167.625 389.854,163.733 388.632,159.801 C387.386,155.852 386.077,151.93 384.131,147.676 C383.624,146.597 383.095,145.514 382.409,144.328 C381.71,143.144 380.944,141.895 379.624,140.381 C379.302,140.011 378.857,139.572 378.453,139.185 C377.896,138.709 377.505,138.343 376.732,137.84 C376.36,137.601 376.067,137.404 375.605,137.168 C375.144,136.933 374.666,136.721 374.185,136.534 C373.065,136.146 371.856,135.86 370.438,135.851 C367.646,135.794 365.081,136.981 363.668,138.071 C363.273,138.357 363.025,138.585 362.708,138.861 C362.415,139.127 362.096,139.426 361.911,139.643 C361.48,140.13 361.074,140.575 360.675,141.181 C359.069,143.621 358.8,144.876 358.332,146.2 C358.122,146.853 357.95,147.467 357.813,148.034 C357.649,148.632 357.526,149.188 357.404,149.737 C356.924,151.945 356.577,154.012 356.27,156.05 C356.053,157.556 355.866,159.039 355.679,160.524 C355.832,159.806 356.005,159.065 356.238,158.248 C356.404,157.626 356.652,156.882 356.945,156.111 C357.056,155.775 357.313,155.238 357.52,154.797 L357.858,154.11 L358.428,153.187 C358.625,152.885 358.832,152.585 359.044,152.297 L359.666,151.561 C360.029,151.12 360.67,150.521 361.281,150.016 C362.648,148.933 364.843,147.689 367.722,147.525 C370.625,147.372 372.926,148.391 374.36,149.279 C375.895,150.238 376.658,151.054 377.449,151.867 C378.821,153.404 379.603,154.667 380.314,155.864 C381.001,157.044 381.549,158.147 382.059,159.225 C384.025,163.499 385.335,167.429 386.589,171.386 C387.813,175.328 388.888,179.229 389.888,183.126 C390.296,184.721 390.683,186.306 391.065,187.894 C391.951,184.99 392.853,182.089 393.785,179.194 C395.956,172.458 398.269,165.73 400.801,158.976 C402.455,154.658 404.199,150.35 406.356,145.913 C407.462,143.682 408.62,141.445 410.292,138.952 C411.177,137.69 412.074,136.385 413.831,134.739 C414.768,133.926 415.842,132.959 418.013,132.054 C419.095,131.625 420.472,131.245 422.13,131.232 C423.774,131.207 425.536,131.63 426.903,132.297 C428.298,132.962 429.304,133.786 430.025,134.502 C430.785,135.249 431.261,135.89 431.738,136.626 C431.96,136.971 432.223,137.394 432.376,137.694 L432.761,138.504 L433.124,139.325 L433.358,139.981 C434,141.797 434.253,143.119 434.536,144.489 C435.029,147.131 435.303,149.516 435.536,151.876 C435.979,156.569 436.229,161.098 436.439,165.605 C437.219,183.583 437.541,201.234 438.471,218.876 C439.385,236.492 440.728,254.049 443.367,271.306 C444.705,279.924 446.381,288.464 448.69,296.743 C448.804,297.141 448.924,297.535 449.039,297.934 C451.319,305.76 454.142,313.434 458.259,320.044 C459.313,321.801 460.519,323.406 461.763,324.958 C462.871,326.242 464.88,328.368 466.229,330.388 C469.061,334.484 471.048,338.802 472.709,343.131 C475.989,351.81 478.065,360.602 479.926,369.37 C483.587,386.911 486.105,404.483 490.021,421.747 C491.996,430.363 494.275,438.927 497.618,447.093 C499.301,451.163 501.257,455.138 503.744,458.78 C506.226,462.405 509.259,465.744 513.059,468.083 M84.977,240.513 C80.788,238.614 76.364,237.138 71.821,236.092 C87.522,205.073 108.976,188.468 131.514,183.903 C141.789,183.672 152.225,185.466 162.074,189.008 C164.284,189.798 166.457,190.701 168.606,191.657 C164.475,191.54 160.325,191.634 156.176,192.012 C146.18,192.903 136.154,195.364 126.999,199.839 C117.841,204.296 109.646,210.604 102.812,217.996 C96.29,224.977 91.085,232.962 86.681,241.238 C86.63,241.249 86.579,241.259 86.526,241.275 C86.007,241.026 85.502,240.753 84.977,240.513" fill="#0A0B09"/>
  </g>
</svg>
