<?xml version="1.0" encoding="UTF-8" standalone="no"?>
<!-- Created with Inkscape (http://www.inkscape.org/) -->

<svg
   xmlns:dc="http://purl.org/dc/elements/1.1/"
   xmlns:cc="http://creativecommons.org/ns#"
   xmlns:rdf="http://www.w3.org/1999/02/22-rdf-syntax-ns#"
   xmlns:svg="http://www.w3.org/2000/svg"
   xmlns="http://www.w3.org/2000/svg"
   xmlns:sodipodi="http://sodipodi.sourceforge.net/DTD/sodipodi-0.dtd"
   xmlns:inkscape="http://www.inkscape.org/namespaces/inkscape"
   width="200"
   height="106"
   id="svg2"
   version="1.1"
   inkscape:version="0.91 r13725"
   sodipodi:docname="non-burning-hat.svg">
  <metadata
     id="metadata5">
    <rdf:RDF>
      <cc:Work
         rdf:about="">
        <dc:format>image/svg+xml</dc:format>
        <dc:type
           rdf:resource="http://purl.org/dc/dcmitype/StillImage" />
        <dc:title></dc:title>
      </cc:Work>
    </rdf:RDF>
  </metadata>
  <defs
     id="defs4">
    <inkscape:path-effect
       effect="spiro"
       id="path-effect3761"
       is_visible="true" />
  </defs>
  <sodipodi:namedview
     id="base"
     pagecolor="#ffffff"
     bordercolor="#666666"
     borderopacity="1.0"
     inkscape:pageopacity="0.0"
     inkscape:pageshadow="2"
     inkscape:zoom="1.4142136"
     inkscape:cx="-69.559897"
     inkscape:cy="106.22121"
     inkscape:document-units="px"
     inkscape:current-layer="g3773"
     showgrid="false"
     width="480px"
     inkscape:window-width="1920"
     inkscape:window-height="994"
     inkscape:window-x="1440"
     inkscape:window-y="33"
     inkscape:window-maximized="1"
     showguides="true"
     inkscape:guide-bbox="true"
     fit-margin-top="0"
     fit-margin-left="0"
     fit-margin-right="0"
     fit-margin-bottom="0" />
  <g
     id="g3773"
     transform="translate(-90,-158)">
    <path
       sodipodi:nodetypes="sssss"
       inkscape:connector-curvature="0"
       id="path2984"
       d="m 366.28131,212.0497 c 0,25.57934 -62.20846,46.31549 -138.94649,46.31549 -76.73802,0 -138.946484,-20.73615 -138.946484,-46.31549 0,-25.57934 62.208464,-15.4385 138.946484,-15.4385 76.73803,0 138.94649,-10.14084 138.94649,15.4385 z"
       style="color:#000000;display:inline;overflow:visible;visibility:visible;fill:#747474;fill-opacity:1;fill-rule:nonzero;stroke:none;stroke-width:3;marker:none;enable-background:accumulate"
       transform="matrix(0.71970153,0,0,0.6477314,26.386779,96.648752)" />
    <path
       sodipodi:nodetypes="sczcszs"
       inkscape:connector-curvature="0"
       id="path3754"
       d="m 264.74515,247.14584 0,56.27819 c 0,0 -9.42568,7.93745 -51.37258,7.93723 C 171.42568,311.36104 162,303.42349 162,303.42349 l 0,-56.27765 c 0,-17.53504 1.16693,-52.20152 51.37257,-52.20152 50.20564,0 51.37258,34.66648 51.37258,52.20152 z"
       style="color:#000000;display:inline;overflow:visible;visibility:visible;fill:#838383;fill-opacity:1;fill-rule:nonzero;stroke:none;stroke-width:3;marker:none;enable-background:accumulate"
       transform="matrix(1.1679383,0,0,0.75590551,-59.206002,10.640511)" />
    <path
       sodipodi:nodetypes="csccscc"
       inkscape:connector-curvature="0"
       d="m 264.74515,329.88236 c 0,0 -9.42568,7.93745 -51.37258,7.93723 C 171.42568,337.81937 162,329.88182 162,329.88182 l 0,-26.45833 c 0,0 9.42568,7.93755 51.37257,7.93777 41.9469,2.2e-4 51.37258,-7.93723 51.37258,-7.93723 z"
       style="color:#000000;display:inline;overflow:visible;visibility:visible;fill:#222222;fill-opacity:1;fill-rule:nonzero;stroke:none;stroke-width:3;marker:none;enable-background:accumulate"
       transform="matrix(1.1679383,0,0,0.75590551,-59.206002,-9.359489)"
       id="path3768" />
    <path
       transform="matrix(1.1679383,0,0,0.75590551,-59.206002,10.640511)"
       style="color:#000000;display:inline;overflow:visible;visibility:visible;opacity:0.19396554;fill:#c8c8c8;fill-opacity:1;fill-rule:nonzero;stroke:none;stroke-width:3;marker:none;enable-background:accumulate"
       d="m 162,256.79068 0,-9.64484 c 0,-17.53504 1.16693,-52.20152 51.37257,-52.20152 13.43912,0 23.36445,2.48397 30.69418,6.45841 -21.04394,-3.24993 -38.14871,-0.67588 -49.55379,7.72656 C 170.9542,226.48569 165.1739,240.15914 162,256.79068 Z"
       id="path3771"
       inkscape:connector-curvature="0"
       sodipodi:nodetypes="csscsc" />
  </g>
</svg>
